<svg width="851" height="741" viewBox="0 0 851 741" fill="none" xmlns="http://www.w3.org/2000/svg">
<g clip-path="url(#clip0_0_1)">
<path d="M419.578 740.74C416.928 740.8 414.268 740.83 411.598 740.83C348.168 740.83 268.388 706.95 195.988 660.05C189.998 656.17 184.061 652.2 178.178 648.14L183.338 616.74L339.548 596L417.948 655.95L419.578 740.74Z" fill="#2F2E41"/>
<path d="M427.098 180.05H404.838C404.149 180.05 403.487 180.324 403 180.811C402.512 181.299 402.238 181.96 402.238 182.649V204.919C402.238 205.26 402.306 205.598 402.437 205.913C402.568 206.227 402.759 206.513 403.001 206.754C403.242 206.994 403.529 207.185 403.844 207.315C404.159 207.444 404.497 207.511 404.838 207.51H427.098C427.786 207.51 428.446 207.237 428.933 206.752C429.421 206.266 429.696 205.607 429.698 204.919V182.649C429.696 181.961 429.421 181.3 428.934 180.813C428.447 180.326 427.787 180.052 427.098 180.05V180.05Z" fill="white"/>
<path d="M427.098 218H404.838C404.149 218 403.487 218.274 403 218.761C402.512 219.249 402.238 219.91 402.238 220.6V242.87C402.238 243.21 402.306 243.548 402.437 243.863C402.568 244.177 402.759 244.463 403.001 244.704C403.242 244.944 403.529 245.135 403.844 245.265C404.159 245.394 404.497 245.461 404.838 245.46H427.098C427.786 245.46 428.446 245.187 428.933 244.702C429.421 244.216 429.696 243.557 429.698 242.87V220.6C429.696 219.911 429.421 219.25 428.934 218.763C428.447 218.276 427.787 218.002 427.098 218Z" fill="#E6E6E6"/>
<path d="M427.098 255.95H404.838C404.149 255.95 403.487 256.224 403 256.711C402.512 257.199 402.238 257.86 402.238 258.55V280.81C402.237 281.151 402.304 281.49 402.435 281.805C402.565 282.121 402.757 282.408 402.998 282.65C403.24 282.891 403.526 283.083 403.842 283.213C404.158 283.343 404.496 283.41 404.838 283.409H427.098C427.787 283.409 428.449 283.135 428.936 282.648C429.424 282.16 429.698 281.499 429.698 280.81V258.55C429.696 257.861 429.421 257.2 428.934 256.713C428.447 256.226 427.787 255.952 427.098 255.95V255.95Z" fill="#E6E6E6"/>
<path d="M429.658 296.04C429.547 295.441 429.231 294.899 428.763 294.509C428.296 294.118 427.707 293.903 427.098 293.899H404.838C404.149 293.9 403.487 294.174 403 294.661C402.512 295.149 402.238 295.81 402.238 296.5V318.76C402.237 319.101 402.304 319.44 402.435 319.755C402.565 320.071 402.756 320.358 402.998 320.6C403.24 320.841 403.526 321.033 403.842 321.163C404.158 321.293 404.496 321.36 404.838 321.36H427.098C427.787 321.359 428.449 321.085 428.936 320.598C429.424 320.11 429.698 319.449 429.698 318.76V296.5C429.7 296.345 429.687 296.191 429.658 296.04V296.04Z" fill="#E6E6E6"/>
<path d="M428.108 332.05C427.788 331.917 427.445 331.849 427.098 331.85H404.838C404.496 331.849 404.158 331.916 403.842 332.046C403.527 332.177 403.24 332.368 402.998 332.61C402.757 332.851 402.565 333.138 402.435 333.454C402.304 333.77 402.238 334.108 402.238 334.45V356.71C402.237 357.051 402.303 357.39 402.433 357.706C402.563 358.022 402.754 358.31 402.996 358.551C403.238 358.793 403.525 358.985 403.841 359.115C404.157 359.245 404.496 359.311 404.838 359.31H427.098C427.788 359.309 428.449 359.035 428.936 358.548C429.424 358.06 429.698 357.399 429.698 356.71V334.45C429.697 333.938 429.546 333.438 429.263 333.011C428.98 332.585 428.579 332.25 428.108 332.05Z" fill="#E6E6E6"/>
<path d="M473.858 180.05H451.598C450.909 180.05 450.247 180.324 449.76 180.811C449.272 181.299 448.998 181.96 448.998 182.649V204.919C448.998 205.26 449.066 205.598 449.197 205.913C449.328 206.227 449.519 206.513 449.761 206.754C450.002 206.994 450.289 207.185 450.604 207.315C450.919 207.444 451.257 207.511 451.598 207.51H473.858C474.546 207.51 475.206 207.237 475.693 206.752C476.181 206.266 476.456 205.607 476.458 204.919V182.649C476.456 181.961 476.181 181.3 475.694 180.813C475.207 180.326 474.547 180.052 473.858 180.05V180.05Z" fill="#E6E6E6"/>
<path d="M473.858 218H451.598C450.909 218 450.247 218.274 449.76 218.761C449.272 219.249 448.998 219.91 448.998 220.6V242.87C448.998 243.21 449.066 243.548 449.197 243.863C449.328 244.177 449.519 244.463 449.761 244.704C450.002 244.944 450.289 245.135 450.604 245.265C450.919 245.394 451.257 245.461 451.598 245.46H473.858C474.546 245.46 475.206 245.187 475.693 244.702C476.181 244.216 476.456 243.557 476.458 242.87V220.6C476.456 219.911 476.181 219.25 475.694 218.763C475.207 218.276 474.547 218.002 473.858 218Z" fill="#6C63FF"/>
<path d="M473.858 255.95H451.598C450.909 255.95 450.247 256.224 449.76 256.711C449.272 257.199 448.998 257.86 448.998 258.55V280.81C448.997 281.151 449.064 281.49 449.195 281.805C449.325 282.121 449.517 282.408 449.758 282.65C450 282.891 450.287 283.083 450.602 283.213C450.918 283.343 451.256 283.41 451.598 283.409H473.858C474.547 283.409 475.209 283.135 475.696 282.648C476.184 282.16 476.458 281.499 476.458 280.81V258.55C476.456 257.861 476.181 257.2 475.694 256.713C475.207 256.226 474.547 255.952 473.858 255.95V255.95Z" fill="#6C63FF"/>
<path d="M473.858 293.899H451.598C451.053 293.9 450.522 294.072 450.08 294.392C449.639 294.711 449.309 295.162 449.138 295.679C449.046 295.943 448.998 296.22 448.998 296.5V318.76C448.997 319.101 449.064 319.44 449.195 319.755C449.325 320.071 449.516 320.358 449.758 320.6C450 320.841 450.286 321.033 450.602 321.163C450.918 321.293 451.256 321.36 451.598 321.36H473.858C474.547 321.359 475.209 321.085 475.696 320.598C476.184 320.11 476.458 319.449 476.458 318.76V296.5C476.456 295.811 476.181 295.15 475.694 294.663C475.207 294.176 474.547 293.902 473.858 293.899V293.899Z" fill="#6C63FF"/>
<path d="M473.858 331.85H451.598C451.256 331.849 450.918 331.916 450.602 332.046C450.287 332.177 450 332.368 449.758 332.61C449.517 332.851 449.325 333.138 449.195 333.454C449.064 333.77 448.997 334.108 448.998 334.45V356.71C448.997 357.051 449.064 357.39 449.195 357.705C449.325 358.021 449.517 358.308 449.758 358.55C450 358.791 450.287 358.983 450.602 359.113C450.918 359.244 451.256 359.31 451.598 359.31H473.858C474.547 359.309 475.209 359.035 475.696 358.548C476.184 358.06 476.458 357.399 476.458 356.71V334.45C476.458 333.76 476.184 333.099 475.696 332.611C475.209 332.124 474.547 331.85 473.858 331.85V331.85Z" fill="#E6E6E6"/>
<path d="M520.618 180.05H498.358C497.669 180.05 497.007 180.324 496.52 180.811C496.032 181.299 495.758 181.96 495.758 182.649V204.919C495.758 205.26 495.826 205.598 495.957 205.913C496.088 206.227 496.279 206.513 496.521 206.754C496.762 206.994 497.049 207.185 497.364 207.315C497.679 207.444 498.017 207.511 498.358 207.51H520.618C521.306 207.51 521.966 207.237 522.453 206.752C522.941 206.266 523.216 205.607 523.218 204.919V182.649C523.216 181.961 522.941 181.3 522.454 180.813C521.967 180.326 521.307 180.052 520.618 180.05V180.05Z" fill="#6C63FF"/>
<path d="M520.618 218H498.358C497.669 218 497.007 218.274 496.52 218.761C496.032 219.249 495.758 219.91 495.758 220.6V242.87C495.758 243.21 495.826 243.548 495.957 243.863C496.088 244.177 496.279 244.463 496.521 244.704C496.762 244.944 497.049 245.135 497.364 245.265C497.679 245.394 498.017 245.461 498.358 245.46H520.618C521.306 245.46 521.966 245.187 522.453 244.702C522.941 244.216 523.216 243.557 523.218 242.87V220.6C523.216 219.911 522.941 219.25 522.454 218.763C521.967 218.276 521.307 218.002 520.618 218Z" fill="#6C63FF"/>
<path d="M520.618 255.95H498.358C497.669 255.95 497.007 256.224 496.52 256.711C496.032 257.199 495.758 257.86 495.758 258.55V280.81C495.757 281.151 495.824 281.49 495.955 281.805C496.085 282.121 496.277 282.408 496.518 282.65C496.76 282.891 497.047 283.083 497.362 283.213C497.678 283.343 498.016 283.41 498.358 283.409H520.618C521.307 283.409 521.969 283.135 522.456 282.648C522.944 282.16 523.218 281.499 523.218 280.81V258.55C523.216 257.861 522.941 257.2 522.454 256.713C521.967 256.226 521.307 255.952 520.618 255.95V255.95Z" fill="#E6E6E6"/>
<path d="M520.618 293.899H498.358C497.669 293.9 497.007 294.174 496.52 294.661C496.033 295.149 495.758 295.81 495.758 296.5V318.76C495.757 319.101 495.824 319.44 495.955 319.755C496.085 320.071 496.277 320.358 496.518 320.6C496.76 320.841 497.047 321.033 497.362 321.163C497.678 321.293 498.016 321.36 498.358 321.36H520.618C521.307 321.359 521.969 321.085 522.456 320.598C522.944 320.11 523.218 319.449 523.218 318.76V296.5C523.216 295.811 522.941 295.15 522.454 294.663C521.967 294.176 521.307 293.902 520.618 293.899V293.899Z" fill="#6C63FF"/>
<path d="M520.618 331.85H498.358C498.016 331.849 497.678 331.916 497.362 332.046C497.047 332.177 496.76 332.368 496.518 332.61C496.277 332.851 496.085 333.138 495.955 333.454C495.824 333.77 495.757 334.108 495.758 334.45V356.71C495.757 357.051 495.824 357.39 495.955 357.705C496.085 358.021 496.277 358.308 496.518 358.55C496.76 358.791 497.047 358.983 497.362 359.113C497.678 359.244 498.016 359.31 498.358 359.31H520.618C521.308 359.309 521.969 359.035 522.456 358.548C522.944 358.06 523.218 357.399 523.218 356.71V334.45C523.218 333.76 522.944 333.099 522.456 332.611C521.969 332.124 521.307 331.85 520.618 331.85V331.85Z" fill="#6C63FF"/>
<path d="M567.378 180.05H545.118C544.429 180.05 543.767 180.324 543.28 180.811C542.792 181.299 542.518 181.96 542.518 182.649V204.919C542.518 205.26 542.586 205.598 542.717 205.913C542.848 206.227 543.039 206.513 543.281 206.754C543.522 206.994 543.809 207.185 544.124 207.315C544.439 207.444 544.777 207.511 545.118 207.51H567.378C568.066 207.51 568.726 207.237 569.213 206.752C569.701 206.266 569.976 205.607 569.978 204.919V182.649C569.976 181.961 569.701 181.3 569.214 180.813C568.727 180.326 568.067 180.052 567.378 180.05V180.05Z" fill="#6C63FF"/>
<path d="M567.378 218H545.118C544.429 218 543.767 218.274 543.28 218.761C542.792 219.249 542.518 219.91 542.518 220.6V242.87C542.518 243.21 542.586 243.548 542.717 243.863C542.848 244.177 543.039 244.463 543.281 244.704C543.522 244.944 543.809 245.135 544.124 245.265C544.439 245.394 544.777 245.461 545.118 245.46H567.378C568.066 245.46 568.726 245.187 569.213 244.702C569.701 244.216 569.976 243.557 569.978 242.87V220.6C569.976 219.911 569.701 219.25 569.214 218.763C568.727 218.276 568.067 218.002 567.378 218V218Z" fill="white"/>
<path d="M567.378 255.95H545.118C544.429 255.95 543.767 256.224 543.28 256.711C542.792 257.199 542.518 257.86 542.518 258.55V280.81C542.517 281.151 542.584 281.49 542.715 281.805C542.845 282.121 543.036 282.408 543.278 282.65C543.52 282.891 543.806 283.083 544.122 283.213C544.438 283.343 544.776 283.41 545.118 283.409H567.378C568.067 283.409 568.729 283.135 569.216 282.648C569.704 282.16 569.978 281.499 569.978 280.81V258.55C569.976 257.861 569.701 257.2 569.214 256.713C568.727 256.226 568.067 255.952 567.378 255.95V255.95Z" fill="white"/>
<path d="M567.378 293.899H545.118C544.429 293.9 543.767 294.174 543.28 294.661C542.792 295.149 542.518 295.81 542.518 296.5V318.76C542.517 319.101 542.584 319.44 542.715 319.755C542.845 320.071 543.036 320.358 543.278 320.6C543.52 320.841 543.806 321.033 544.122 321.163C544.438 321.293 544.776 321.36 545.118 321.36H567.378C568.067 321.359 568.729 321.085 569.216 320.598C569.704 320.11 569.978 319.449 569.978 318.76V296.5C569.976 295.811 569.701 295.15 569.214 294.663C568.727 294.176 568.067 293.902 567.378 293.899V293.899Z" fill="#E6E6E6"/>
<path d="M567.378 331.85H545.118C544.776 331.849 544.438 331.916 544.122 332.046C543.806 332.177 543.52 332.368 543.278 332.61C543.036 332.851 542.845 333.138 542.715 333.454C542.584 333.77 542.517 334.108 542.518 334.45V356.71C542.517 357.051 542.584 357.39 542.715 357.705C542.845 358.021 543.036 358.308 543.278 358.55C543.52 358.791 543.806 358.983 544.122 359.113C544.438 359.244 544.776 359.31 545.118 359.31H567.378C568.067 359.309 568.729 359.035 569.216 358.548C569.704 358.06 569.978 357.399 569.978 356.71V334.45C569.978 333.76 569.704 333.099 569.216 332.611C568.729 332.124 568.067 331.85 567.378 331.85V331.85Z" fill="#6C63FF"/>
<path d="M614.138 180.05H591.868C591.18 180.052 590.521 180.327 590.036 180.814C589.55 181.302 589.278 181.962 589.278 182.649V204.919C589.278 205.606 589.551 206.265 590.037 206.751C590.522 207.236 591.181 207.509 591.868 207.51H614.138C614.826 207.51 615.486 207.237 615.973 206.752C616.461 206.266 616.736 205.607 616.738 204.919V182.649C616.736 181.961 616.461 181.3 615.974 180.813C615.487 180.326 614.827 180.052 614.138 180.05Z" fill="white"/>
<path d="M614.138 218H591.868C591.18 218.002 590.521 218.277 590.036 218.764C589.55 219.252 589.278 219.912 589.278 220.6V242.87C589.278 243.556 589.551 244.215 590.037 244.701C590.522 245.187 591.181 245.459 591.868 245.46H614.138C614.826 245.46 615.486 245.187 615.973 244.702C616.461 244.216 616.736 243.557 616.738 242.87V220.6C616.736 219.911 616.461 219.25 615.974 218.763C615.487 218.276 614.827 218.002 614.138 218V218Z" fill="white"/>
<path d="M614.138 255.95H591.868C591.18 255.952 590.521 256.227 590.036 256.714C589.55 257.202 589.278 257.862 589.278 258.55V280.81C589.277 281.15 589.343 281.488 589.473 281.803C589.603 282.119 589.793 282.405 590.034 282.647C590.274 282.888 590.56 283.08 590.875 283.211C591.19 283.342 591.527 283.409 591.868 283.409H614.138C614.827 283.409 615.489 283.135 615.976 282.648C616.464 282.16 616.738 281.499 616.738 280.81V258.55C616.736 257.861 616.461 257.2 615.974 256.713C615.487 256.226 614.827 255.952 614.138 255.95V255.95Z" fill="white"/>
<path d="M614.138 331.85H591.868C591.527 331.85 591.19 331.917 590.875 332.048C590.56 332.179 590.274 332.371 590.034 332.612C589.793 332.854 589.603 333.141 589.473 333.456C589.343 333.771 589.277 334.109 589.278 334.45V356.71C589.277 357.05 589.343 357.388 589.473 357.703C589.603 358.019 589.793 358.305 590.034 358.547C590.274 358.788 590.56 358.98 590.875 359.111C591.19 359.242 591.527 359.309 591.868 359.31H614.138C614.827 359.309 615.489 359.035 615.976 358.548C616.464 358.06 616.738 357.399 616.738 356.71V334.45C616.738 333.76 616.464 333.099 615.976 332.611C615.489 332.124 614.827 331.85 614.138 331.85V331.85Z" fill="#E6E6E6"/>
<path d="M336.095 660.051H335.475L336.005 659.981L336.095 660.051Z" fill="#2F2E41"/>
<path d="M282.814 245.055C320.548 245.055 351.136 214.466 351.136 176.733C351.136 139 320.548 108.411 282.814 108.411C245.081 108.411 214.493 139 214.493 176.733C214.493 214.466 245.081 245.055 282.814 245.055Z" fill="#FFB6B6"/>
<path d="M342.646 126.64C342.646 126.64 360.515 92.4794 321.202 89.3739C321.202 89.3739 287.687 58.9716 253.526 83.8159C253.526 83.8159 234.893 83.8159 224.704 104.902C224.704 104.902 210.049 99.3435 206.828 114.218C206.828 114.218 196.105 145.274 206.828 173.223C217.552 201.173 221.114 204.279 221.114 204.279C221.114 204.279 203.493 145.68 246.384 142.575C289.274 139.469 337.27 112.665 340.845 146.826C344.419 180.987 349.798 189.404 349.798 189.404C349.798 189.404 383.748 140.615 342.646 126.64Z" fill="#2F2E41"/>
<path d="M459.548 345.11L459.328 346.27L456.858 359.31L439.788 449.51L438.778 454.82L436.658 466.05L433.758 481.37L427.328 515.32L425.488 525.05L424.798 528.7L424.558 529.98L422.648 540.05L422.068 543.09L417.408 577.62L413.338 607.71L426.958 621.329L418.838 629.449L413.508 659.98L413.518 660.05H195.988C187.188 654.35 178.515 648.473 169.968 642.419L171.758 629.02C171.758 629.02 177.918 605.09 175.328 602.23C172.748 599.37 167.088 594.26 167.088 594.26L174.218 577.62L175.208 575.31L173.548 540.88L173.508 540.05L172.958 528.699L172.888 527.239L172.778 525.05L170.668 481.369L170.628 480.649L169.988 467.409L169.388 454.82L169.128 449.509L166.558 396.379L164.818 360.3L163.298 328.89L169.408 326.82L234.758 304.609L261.828 269.419L318.168 269.839L345.748 270.05L391.768 312.729L402.238 317.729L402.318 317.769L409.828 321.359L428.868 330.449L448.998 340.07L459.328 345L459.548 345.11Z" fill="#CACACA"/>
<path d="M269.109 557.551C264.98 559.15 260.551 559.825 256.134 559.528C251.716 559.23 247.417 557.968 243.54 555.829C239.663 553.691 236.303 550.728 233.694 547.15C231.086 543.572 229.294 539.466 228.445 535.121L121.886 520.003L158.929 478.101L254.44 498.881C261.834 497.938 269.318 499.74 275.473 503.946C281.628 508.151 286.026 514.469 287.834 521.701C289.642 528.932 288.734 536.576 285.283 543.184C281.832 549.791 276.077 554.903 269.109 557.551V557.551Z" fill="#FFB6B6"/>
<path d="M221.598 481.37C219.624 478.867 216.83 477.142 213.708 476.5L169.988 467.409L165.498 466.48C162.889 465.935 160.424 464.846 158.264 463.283C156.105 461.72 154.3 459.718 152.968 457.409C151.586 454.986 150.75 452.29 150.518 449.51C150.31 446.982 150.612 444.438 151.408 442.03L166.558 396.38L176.388 366.76C177.579 363.187 178.282 359.47 178.478 355.71C179.026 345.302 175.806 335.046 169.408 326.82C163.783 319.589 155.982 314.359 147.156 311.903C138.331 309.446 128.949 309.894 120.398 313.18C120.148 313.27 119.888 313.37 119.638 313.47C113.505 315.918 108.026 319.76 103.633 324.691C99.2408 329.621 96.055 335.506 94.3279 341.88L83.648 380.73L61.6179 460.82C59.4126 468.844 58.9671 477.25 60.3119 485.462C61.6566 493.675 64.7599 501.5 69.4092 508.402C74.0586 515.304 80.1444 521.12 87.2499 525.451C94.3554 529.783 102.313 532.528 110.578 533.5L173.548 540.88L202.688 544.3C206.058 544.705 209.456 543.825 212.206 541.837C214.956 539.848 216.857 536.896 217.528 533.57C217.575 533.388 217.612 533.205 217.638 533.02L218.338 528.699L224.268 492.32L224.328 491.949C224.637 490.093 224.554 488.193 224.083 486.37C223.613 484.548 222.767 482.845 221.598 481.37Z" fill="#CACACA"/>
<path d="M336.983 558.717C341.295 559.718 345.775 559.762 350.107 558.844C354.438 557.927 358.516 556.071 362.053 553.407C365.589 550.743 368.499 547.336 370.576 543.426C372.654 539.517 373.849 535.199 374.077 530.777L477.439 500.783L434.858 464.524L343.231 498.565C335.778 498.674 328.623 501.513 323.123 506.545C317.623 511.577 314.159 518.451 313.389 525.866C312.619 533.28 314.595 540.72 318.943 546.775C323.292 552.829 329.71 557.079 336.983 558.717V558.717Z" fill="#FFB6B6"/>
<path d="M528.758 433.69L479.598 320.55C475.577 311.261 468.396 303.697 459.328 299.2C456.525 297.82 453.581 296.747 450.548 296C450.078 295.88 449.608 295.77 449.138 295.679C442.706 294.276 436.034 294.399 429.658 296.04C423.83 297.537 418.383 300.246 413.672 303.99C408.961 307.734 405.092 312.43 402.318 317.77C402.288 317.814 402.261 317.861 402.238 317.909C399.139 323.904 397.491 330.543 397.427 337.29C397.363 344.038 398.884 350.707 401.868 356.76L402.478 357.98L437.218 427.75C438.404 430.135 439.073 432.745 439.179 435.407C439.286 438.07 438.829 440.724 437.837 443.198C436.846 445.671 435.342 447.906 433.426 449.757C431.51 451.609 429.224 453.034 426.718 453.939L424.278 454.82L380.398 470.669C377.105 471.844 374.397 474.251 372.843 477.383C371.29 480.515 371.012 484.127 372.068 487.46L372.178 487.81L384.478 527.169C384.538 527.35 384.598 527.53 384.668 527.709C384.776 528.049 384.91 528.38 385.068 528.699C386.375 531.631 388.686 534 391.584 535.381C394.482 536.761 397.778 537.062 400.878 536.229L424.558 529.979L429.388 528.699L490.538 512.55C498.584 510.423 506.076 506.584 512.5 501.293C518.924 496.003 524.129 489.386 527.759 481.897C531.389 474.408 533.357 466.223 533.53 457.903C533.702 449.582 532.074 441.322 528.758 433.689L528.758 433.69Z" fill="#CACACA"/>
<path d="M44.898 528.7C59.0684 545.983 74.3509 562.325 90.648 577.62H542.618C546.972 577.626 551.147 579.36 554.225 582.44C557.303 585.52 559.034 589.695 559.038 594.05L559.688 708.58C587.493 695.805 613.531 679.493 637.158 660.05C643.718 654.66 650.075 649.036 656.228 643.18C660.258 639.36 664.191 635.446 668.028 631.44C696.792 601.475 720.084 566.702 736.848 528.7H44.898Z" fill="#3F3D56"/>
<path d="M668.028 631.44C664.198 635.45 660.265 639.363 656.228 643.18H560.018V631.44H668.028Z" fill="white"/>
<path d="M458.648 255.95C458.173 255.072 457.469 254.34 456.612 253.829C455.755 253.319 454.776 253.049 453.778 253.05H125.938C124.468 253.053 123.06 253.64 122.021 254.68C120.983 255.72 120.399 257.13 120.398 258.6V454.82H459.328V258.6C459.333 257.672 459.099 256.76 458.648 255.95V255.95Z" fill="#3F3D56"/>
<path d="M120.101 449.507V473.721C120.101 474.725 120.299 475.719 120.683 476.646C121.067 477.574 121.63 478.416 122.34 479.126C123.05 479.836 123.892 480.399 124.82 480.783C125.747 481.167 126.741 481.365 127.745 481.365H252.842V529.151H251.18C251.049 529.151 250.92 529.177 250.8 529.227C250.679 529.277 250.57 529.35 250.478 529.442C250.385 529.534 250.312 529.644 250.262 529.764C250.213 529.885 250.187 530.014 250.187 530.144V533.468C250.187 533.599 250.212 533.728 250.262 533.848C250.312 533.969 250.385 534.078 250.478 534.17C250.57 534.263 250.679 534.336 250.8 534.386C250.92 534.435 251.049 534.461 251.18 534.461H328.838C328.969 534.461 329.098 534.435 329.218 534.386C329.339 534.336 329.448 534.263 329.54 534.17C329.633 534.078 329.706 533.969 329.756 533.848C329.806 533.728 329.831 533.599 329.831 533.468V530.144C329.831 530.014 329.806 529.885 329.756 529.764C329.706 529.644 329.633 529.534 329.54 529.442C329.448 529.35 329.339 529.277 329.218 529.227C329.098 529.177 328.969 529.151 328.838 529.151H327.176V481.365H452.273C453.277 481.365 454.271 481.167 455.198 480.783C456.126 480.399 456.968 479.836 457.678 479.126C458.388 478.416 458.951 477.574 459.335 476.646C459.719 475.719 459.917 474.725 459.917 473.721V449.507H120.101Z" fill="#3F3D56"/>
<path d="M285.903 380.01C303.193 380.01 317.209 365.994 317.209 348.704C317.209 331.414 303.193 317.397 285.903 317.397C268.613 317.397 254.597 331.414 254.597 348.704C254.597 365.994 268.613 380.01 285.903 380.01Z" fill="#6C63FF"/>
<path d="M365.668 173H360.668C360.668 135.2 323.258 110.43 285.518 110.41C280.029 110.394 274.551 110.926 269.168 112C263.108 113.21 256.818 114.66 250.638 116.55C226.268 124.02 203.668 138.46 203.668 173C203.663 179.707 204.516 186.388 206.208 192.88L201.368 194.14C199.573 187.236 198.665 180.132 198.668 173C198.668 142.82 211.058 122.09 232.458 109.73C243.708 103.23 257.438 99.0396 273.168 96.9996C279.714 96.1287 286.331 95.9277 292.918 96.3996C336.318 99.5195 365.668 132.8 365.668 173Z" fill="#6C63FF"/>
<path d="M373.998 175.77L372.028 161.21C371.542 157.533 369.771 154.146 367.028 151.65C365.267 150.022 363.159 148.816 360.864 148.123C358.568 147.43 356.145 147.268 353.778 147.65L350.648 148.08C349.792 148.192 348.966 148.474 348.219 148.908C347.473 149.343 346.819 149.921 346.298 150.61C345.772 151.296 345.387 152.08 345.166 152.916C344.944 153.751 344.891 154.623 345.008 155.48L349.558 189.02C349.745 190.387 350.358 191.66 351.309 192.66C352.26 193.659 353.502 194.334 354.858 194.59C355.26 194.67 355.668 194.71 356.078 194.71C356.372 194.709 356.666 194.689 356.958 194.65L360.458 194.18C362.592 193.896 364.645 193.18 366.492 192.074C368.339 190.968 369.941 189.497 371.198 187.75C371.468 187.37 371.728 186.98 371.968 186.58C373.842 183.307 374.558 179.499 373.998 175.77Z" fill="#6C63FF"/>
<path d="M348.628 148.69C347.71 149.136 346.911 149.794 346.298 150.61C345.772 151.296 345.387 152.08 345.166 152.916C344.944 153.751 344.891 154.623 345.008 155.48L349.558 189.02C349.745 190.387 350.358 191.66 351.309 192.66C352.26 193.659 353.502 194.334 354.858 194.59L348.628 148.69Z" fill="white"/>
<path d="M373.998 175.77L372.028 161.21C371.542 157.533 369.771 154.146 367.028 151.65L371.558 185.02C371.626 185.555 371.764 186.08 371.968 186.58C373.842 183.307 374.558 179.499 373.998 175.77V175.77Z" fill="#3F3D56"/>
<path d="M358.428 186.26C359.796 186.075 360.484 182.819 359.965 178.988C359.445 175.157 357.915 172.202 356.546 172.387C355.178 172.573 354.49 175.829 355.01 179.66C355.53 183.491 357.06 186.446 358.428 186.26Z" fill="#3F3D56"/>
<path d="M355.428 168.26C356.796 168.075 357.484 164.819 356.965 160.988C356.445 157.157 354.915 154.202 353.546 154.387C352.178 154.573 351.49 157.829 352.01 161.66C352.53 165.491 354.06 168.446 355.428 168.26Z" fill="#3F3D56"/>
<path d="M374.428 175.26C375.796 175.075 376.484 171.819 375.965 167.988C375.445 164.157 373.915 161.202 372.546 161.387C371.178 161.573 370.49 164.829 371.01 168.66C371.53 172.491 373.06 175.446 374.428 175.26Z" fill="#3F3D56"/>
<path d="M285.518 110.41C280.029 110.394 274.551 110.926 269.168 112C263.108 113.21 256.818 114.66 250.638 116.55C240.988 116.08 233.888 113.58 232.458 109.73C243.708 103.23 257.438 99.0395 273.168 96.9995C279.714 96.1287 286.331 95.9277 292.918 96.3996C293.615 96.8083 294.218 97.36 294.687 98.0184C295.156 98.6768 295.48 99.4269 295.638 100.22C296.108 103.7 292.138 107.4 285.518 110.41Z" fill="#3F3D56"/>
<path d="M221.678 207.7L213.978 175.69C213.703 174.535 213.094 173.487 212.226 172.677C211.357 171.868 210.269 171.333 209.098 171.14C208.767 171.088 208.433 171.061 208.098 171.06C207.626 171.061 207.156 171.118 206.698 171.23L203.718 171.95C199.881 172.878 196.569 175.29 194.509 178.657C192.448 182.024 191.808 186.071 192.728 189.91L196.178 204.27C196.966 207.65 198.842 210.679 201.518 212.89C201.952 213.24 202.406 213.564 202.878 213.86C204.554 214.91 206.424 215.614 208.377 215.93C210.33 216.246 212.326 216.168 214.248 215.7L217.218 214.98C218.003 214.796 218.742 214.452 219.388 213.97C220.348 213.269 221.079 212.299 221.487 211.183C221.895 210.066 221.961 208.854 221.678 207.7Z" fill="#6C63FF"/>
<path d="M205.536 201.744C206.878 201.421 207.233 198.112 206.329 194.353C205.424 190.594 203.603 187.809 202.26 188.132C200.918 188.455 200.563 191.764 201.467 195.523C202.372 199.282 204.193 202.067 205.536 201.744Z" fill="#3F3D56"/>
<path d="M195.536 204.744C196.878 204.421 197.233 201.112 196.329 197.353C195.424 193.594 193.603 190.809 192.26 191.132C190.918 191.455 190.563 194.764 191.467 198.523C192.372 202.282 194.193 205.067 195.536 204.744Z" fill="#3F3D56"/>
<path d="M222.168 207.58L214.468 175.57C214.168 174.32 213.506 173.187 212.565 172.312C211.624 171.436 210.446 170.858 209.178 170.65L219.688 214.37C220.726 213.609 221.515 212.559 221.957 211.35C222.398 210.142 222.472 208.83 222.168 207.58V207.58Z" fill="white"/>
<path d="M194.468 183.57C194.256 182.679 193.857 181.844 193.298 181.12C192.216 183.923 192.017 186.99 192.728 189.91L196.178 204.27C196.966 207.65 198.842 210.679 201.518 212.89L194.468 183.57Z" fill="#3F3D56"/>
</g>
<defs>
<clipPath id="clip0_0_1">
<rect width="850.538" height="740.83" fill="white"/>
</clipPath>
</defs>
</svg>
